# Blender 3.3.1
# www.blender.org
mtllib wasser.mtl
o Cylinder.217
v -10.202726 2.099800 15.173737
v -10.189363 2.099800 15.176394
v -10.216090 2.099800 15.176394
v -10.202726 2.156267 15.173737
v -10.202726 2.235471 15.173737
v -10.216090 2.156267 15.176394
v -10.189363 2.156267 15.176394
v -10.189363 2.235471 15.176394
v -10.178035 2.156267 15.183964
v -10.178035 2.099800 15.183964
v -10.178035 2.235471 15.183964
v -10.170465 2.156267 15.195293
v -10.170465 2.099800 15.195293
v -10.170465 2.235471 15.195293
v -10.167807 2.156267 15.208656
v -10.167807 2.099800 15.208656
v -10.167807 2.235471 15.208656
v -10.170465 2.156267 15.222019
v -10.170465 2.099800 15.222019
v -10.170465 2.235471 15.222019
v -10.178035 2.156267 15.233349
v -10.178035 2.099800 15.233349
v -10.178035 2.235471 15.233349
v -10.189363 2.156267 15.240918
v -10.189363 2.099800 15.240918
v -10.189363 2.235471 15.240918
v -10.202726 2.156267 15.243576
v -10.202726 2.099800 15.243576
v -10.202726 2.235471 15.243576
v -10.216090 2.156267 15.240918
v -10.216090 2.099800 15.240918
v -10.216090 2.235471 15.240918
v -10.227419 2.156267 15.233349
v -10.227419 2.099800 15.233349
v -10.227419 2.235471 15.233349
v -10.234988 2.156267 15.222019
v -10.234988 2.099800 15.222019
v -10.234988 2.235471 15.222019
v -10.237647 2.156267 15.208656
v -10.237647 2.099800 15.208656
v -10.237647 2.235471 15.208656
v -10.234988 2.156267 15.195293
v -10.234988 2.099800 15.195293
v -10.234988 2.235471 15.195293
v -10.227419 2.156267 15.183964
v -10.227419 2.099800 15.183964
v -10.227419 2.235471 15.183964
v -10.216090 2.235471 15.176394
v -10.225277 2.252232 15.186107
v -10.220718 2.268992 15.190665
v -10.232189 2.252232 15.196452
v -10.214931 2.252232 15.179193
v -10.212463 2.268992 15.185149
v -10.202726 2.252232 15.176765
v -10.202726 2.268992 15.183213
v -10.190522 2.252232 15.179193
v -10.192989 2.268992 15.185149
v -10.180177 2.252232 15.186107
v -10.184735 2.268992 15.190665
v -10.173264 2.252232 15.196452
v -10.179219 2.268992 15.198919
v -10.170836 2.252232 15.208656
v -10.177283 2.268992 15.208656
v -10.173264 2.252232 15.220860
v -10.179219 2.268992 15.218393
v -10.180177 2.252232 15.231206
v -10.184735 2.268992 15.226648
v -10.190522 2.252232 15.238119
v -10.192989 2.268992 15.232163
v -10.202726 2.252232 15.240547
v -10.202726 2.268992 15.234100
v -10.214931 2.252232 15.238119
v -10.212463 2.268992 15.232163
v -10.225277 2.252232 15.231206
v -10.220718 2.268992 15.226648
v -10.232189 2.252232 15.220860
v -10.226233 2.268992 15.218393
v -10.234617 2.252232 15.208656
v -10.228170 2.268992 15.208656
v -10.217017 2.293212 15.208657
v -10.226233 2.268992 15.198919
v -10.215930 2.293212 15.203188
v -10.214917 2.325228 15.203608
v -10.212832 2.293212 15.198552
v -10.208196 2.293212 15.195454
v -10.212056 2.325228 15.199327
v -10.213904 2.325513 15.197479
v -10.207776 2.325228 15.196467
v -10.208776 2.325513 15.194053
v -10.202727 2.325228 15.195463
v -10.202727 2.293212 15.194366
v -10.202727 2.325513 15.192849
v -10.197678 2.325228 15.196467
v -10.197258 2.293212 15.195454
v -10.196677 2.325513 15.194053
v -10.193398 2.325228 15.199327
v -10.192622 2.293212 15.198552
v -10.191549 2.325513 15.197479
v -10.190537 2.325228 15.203608
v -10.189525 2.293212 15.203188
v -10.188123 2.325513 15.202608
v -10.189533 2.325228 15.208657
v -10.188437 2.293212 15.208657
v -10.186919 2.325513 15.208657
v -10.190537 2.325228 15.213706
v -10.189525 2.293212 15.214126
v -10.188123 2.325513 15.214706
v -10.193398 2.325228 15.217986
v -10.192622 2.293212 15.218761
v -10.191549 2.325513 15.219834
v -10.197678 2.325228 15.220846
v -10.197258 2.293212 15.221860
v -10.196677 2.325513 15.223262
v -10.202727 2.325228 15.221851
v -10.202727 2.293212 15.222947
v -10.202727 2.325513 15.224464
v -10.207776 2.325228 15.220846
v -10.208196 2.293212 15.221860
v -10.208776 2.325513 15.223262
v -10.212056 2.325228 15.217986
v -10.212832 2.293212 15.218761
v -10.213904 2.325513 15.219834
v -10.214917 2.325228 15.213706
v -10.215930 2.293212 15.214126
v -10.217331 2.325513 15.214706
v -10.215921 2.325228 15.208657
v -10.218534 2.325513 15.208657
v -10.217992 2.340490 15.208657
v -10.217331 2.325513 15.202608
v -10.216830 2.340490 15.202815
v -10.213521 2.340490 15.197863
v -10.208569 2.340490 15.194554
v -10.202727 2.340490 15.193392
v -10.196885 2.340490 15.194554
v -10.191933 2.340490 15.197863
v -10.188623 2.340490 15.202815
v -10.187462 2.340490 15.208657
v -10.188623 2.340490 15.214499
v -10.191933 2.340490 15.219451
v -10.196885 2.340490 15.222760
v -10.202727 2.340490 15.223922
v -10.208569 2.340490 15.222760
v -10.213521 2.340490 15.219451
v -10.216830 2.340490 15.214499
vn 0.1951 -0.0000 -0.9808
vn -0.0000 -1.0000 -0.0000
vn -0.1951 -0.0000 -0.9808
vn 0.5556 -0.0000 -0.8315
vn 0.8315 -0.0000 -0.5556
vn 0.9808 -0.0000 -0.1951
vn 0.9808 -0.0000 0.1951
vn 0.8315 -0.0000 0.5556
vn 0.5556 -0.0000 0.8315
vn 0.1951 -0.0000 0.9808
vn -0.1951 -0.0000 0.9808
vn -0.5556 -0.0000 0.8315
vn -0.8315 -0.0000 0.5556
vn -0.9808 -0.0000 0.1951
vn -0.9808 -0.0000 -0.1951
vn -0.8315 -0.0000 -0.5556
vn -0.5556 -0.0000 -0.8315
vn -0.8187 0.1746 -0.5470
vn -0.5470 0.1746 -0.8187
vn -0.7780 0.3530 -0.5198
vn -0.5198 0.3530 -0.7779
vn -0.1921 0.1746 -0.9657
vn -0.1825 0.3530 -0.9177
vn 0.1825 0.3530 -0.9177
vn 0.1921 0.1746 -0.9657
vn 0.5470 0.1746 -0.8187
vn 0.5198 0.3530 -0.7779
vn 0.7780 0.3530 -0.5198
vn 0.8187 0.1746 -0.5470
vn 0.9657 0.1745 -0.1921
vn 0.9177 0.3530 -0.1825
vn 0.9657 0.1745 0.1921
vn 0.9177 0.3530 0.1825
vn 0.7780 0.3530 0.5198
vn 0.8187 0.1745 0.5470
vn 0.5470 0.1745 0.8187
vn 0.5198 0.3530 0.7780
vn 0.1825 0.3530 0.9177
vn 0.1921 0.1745 0.9657
vn -0.1921 0.1745 0.9657
vn -0.1825 0.3530 0.9177
vn -0.5470 0.1746 0.8187
vn -0.5198 0.3530 0.7780
vn -0.7780 0.3530 0.5198
vn -0.8187 0.1746 0.5470
vn -0.9657 0.1746 0.1921
vn -0.9177 0.3530 0.1825
vn -0.9177 0.3530 -0.1825
vn -0.9657 0.1746 -0.1921
vn -0.8939 0.4116 -0.1778
vn -0.8939 0.4116 0.1778
vn -0.7578 0.4116 -0.5063
vn -0.9802 0.0336 -0.1950
vn -0.8310 0.0336 -0.5553
vn -0.5063 0.4116 -0.7578
vn -0.5553 0.0336 -0.8310
vn -0.0613 -0.9939 -0.0918
vn -0.0918 -0.9939 -0.0613
vn -0.1950 0.0336 -0.9802
vn -0.0215 -0.9939 -0.1083
vn 0.1950 0.0336 -0.9802
vn 0.0215 -0.9939 -0.1083
vn 0.5553 0.0336 -0.8310
vn 0.0613 -0.9939 -0.0918
vn 0.8310 0.0336 -0.5553
vn 0.0918 -0.9939 -0.0613
vn 0.9802 0.0336 -0.1950
vn 0.1082 -0.9939 -0.0215
vn 0.9802 0.0336 0.1950
vn 0.1082 -0.9939 0.0215
vn 0.8310 0.0336 0.5553
vn 0.0918 -0.9939 0.0613
vn 0.5553 0.0336 0.8310
vn 0.0613 -0.9939 0.0918
vn 0.1950 0.0336 0.9802
vn 0.0215 -0.9939 0.1082
vn -0.1950 0.0336 0.9802
vn -0.0215 -0.9939 0.1082
vn -0.5553 0.0336 0.8310
vn -0.0613 -0.9939 0.0918
vn -0.8310 0.0336 0.5553
vn -0.0918 -0.9939 0.0613
vn -0.9802 0.0336 0.1950
vn -0.1083 -0.9939 0.0215
vn -0.1083 -0.9939 -0.0215
vn -0.9802 0.0355 0.1950
vn -0.9802 0.0355 -0.1950
vn -0.8309 0.0355 -0.5552
vn -0.0000 1.0000 -0.0000
vn -0.5552 0.0355 -0.8309
vn -0.1950 0.0355 -0.9802
vn 0.1950 0.0355 -0.9802
vn 0.5552 0.0355 -0.8309
vn 0.8309 0.0355 -0.5552
vn 0.9802 0.0355 -0.1950
vn 0.9802 0.0355 0.1950
vn 0.8309 0.0355 0.5552
vn 0.5552 0.0355 0.8309
vn 0.1950 0.0355 0.9802
vn -0.1950 0.0355 0.9802
vn -0.5552 0.0355 0.8309
vn -0.8309 0.0355 0.5552
vn -0.7578 0.4116 0.5063
vn -0.5063 0.4116 0.7578
vn -0.1778 0.4116 0.8939
vn 0.1778 0.4116 0.8939
vn 0.5063 0.4116 0.7578
vn 0.7578 0.4116 0.5063
vn 0.8938 0.4116 0.1778
vn 0.8938 0.4116 -0.1778
vn 0.7578 0.4116 -0.5063
vn 0.5063 0.4116 -0.7578
vn 0.1778 0.4116 -0.8938
vn -0.1778 0.4116 -0.8938
vt 0.045602 0.955687
vt 0.051697 0.959674
vt 0.044620 0.954705
vt 0.050308 0.959674
vt 0.046885 0.956218
vt 0.052980 0.959748
vt 0.040146 0.949236
vt 0.051697 0.964408
vt 0.413083 0.004586
vt 0.413083 0.984911
vt 0.047742 0.956218
vt 0.052980 0.964482
vt 0.039764 0.953954
vt 0.586351 0.014544
vt 0.050308 0.964408
vt 0.225539 0.004586
vt 0.225539 0.984911
vt 0.046353 0.956218
vt 0.049025 0.964482
vt 0.052272 0.014543
vt 0.053962 0.964545
vt 0.044088 0.953421
vt 0.049025 0.959748
vt 0.053962 0.959811
vt 0.052272 0.994868
vt 0.053962 0.971804
vt 0.045070 0.956292
vt 0.052980 0.964408
vt 0.034241 0.964737
vt 0.044088 0.952033
vt 0.052980 0.959674
vt 0.034241 0.969471
vt 0.052980 0.971668
vt 0.044088 0.956428
vt 0.034241 0.957478
vt 0.035524 0.964811
vt 0.044620 0.950749
vt 0.035524 0.969545
vt 0.035524 0.957551
vt 0.036913 0.964811
vt 0.045602 0.949767
vt 0.036913 0.969545
vt 0.036913 0.957551
vt 0.038196 0.964737
vt 0.046885 0.949236
vt 0.038196 0.969471
vt 0.038196 0.957478
vt 0.039178 0.964601
vt 0.034241 0.954180
vt 0.048274 0.949236
vt 0.039178 0.969335
vt 0.034241 0.949446
vt 0.039178 0.957341
vt 0.034241 0.961440
vt 0.033259 0.954044
vt 0.049557 0.949767
vt 0.033259 0.949310
vt 0.033259 0.961303
vt 0.031975 0.953970
vt 0.050539 0.950749
vt 0.031975 0.949236
vt 0.031976 0.961230
vt 0.030587 0.953970
vt 0.051070 0.952033
vt 0.030587 0.949236
vt 0.030587 0.961230
vt 0.029303 0.954044
vt 0.051070 0.953421
vt 0.029303 0.949310
vt 0.029303 0.961303
vt 0.044088 0.961725
vt 0.028321 0.954180
vt 0.043706 0.954274
vt 0.050539 0.954705
vt 0.028321 0.949446
vt 0.044088 0.949555
vt 0.028321 0.961440
vt 0.043120 0.961510
vt 0.042433 0.954097
vt 0.947162 0.004586
vt 0.049557 0.955687
vt 0.042815 0.949378
vt 0.947162 0.984911
vt 0.041847 0.961333
vt 0.041049 0.953984
vt 0.759619 0.004586
vt 0.048274 0.956218
vt 0.041431 0.949266
vt 0.759619 0.984912
vt 0.040463 0.961221
vt 0.586351 0.994869
vt 0.039178 0.961191
vt 0.049025 0.956292
vt 0.040400 0.962744
vt 0.040401 0.964321
vt 0.041664 0.962847
vt 0.039226 0.962717
vt 0.048854 0.957809
vt 0.039465 0.964299
vt 0.048489 0.959367
vt 0.047682 0.957742
vt 0.047554 0.959313
vt 0.046413 0.957742
vt 0.046542 0.959313
vt 0.045242 0.957809
vt 0.045607 0.959367
vt 0.044345 0.957934
vt 0.034412 0.955960
vt 0.034777 0.954403
vt 0.044891 0.959466
vt 0.035584 0.956028
vt 0.035712 0.954457
vt 0.036852 0.956028
vt 0.036724 0.954457
vt 0.038024 0.955960
vt 0.037659 0.954403
vt 0.038921 0.955836
vt 0.033984 0.962945
vt 0.033438 0.964477
vt 0.038375 0.954304
vt 0.033087 0.962821
vt 0.032722 0.964378
vt 0.031915 0.962753
vt 0.031787 0.964324
vt 0.030647 0.962753
vt 0.030775 0.964324
vt 0.029475 0.962821
vt 0.043711 0.963205
vt 0.043042 0.964688
vt 0.029840 0.964378
vt 0.042827 0.963008
vt 0.042337 0.964531
vt 0.041524 0.966745
vt 0.030070 0.966706
vt 0.041410 0.964402
vt 0.041003 0.966673
vt 0.040752 0.969507
vt 0.039439 0.970151
vt 0.034493 0.970122
vt 0.040437 0.966627
vt 0.039911 0.966614
vt 0.047857 0.961639
vt 0.040229 0.969465
vt 0.039962 0.970151
vt 0.039439 0.969626
vt 0.039700 0.970203
vt 0.039178 0.969574
vt 0.032769 0.970755
vt 0.039743 0.969453
vt 0.039962 0.969626
vt 0.047795 0.964482
vt 0.039700 0.970151
vt 0.039700 0.969574
vt 0.039439 0.970203
vt 0.032803 0.971336
vt 0.037848 0.969545
vt 0.039700 0.969626
vt 0.047310 0.964454
vt 0.049286 0.959622
vt 0.047332 0.961609
vt 0.039439 0.969574
vt 0.049025 0.959674
vt 0.037814 0.970126
vt 0.049286 0.959098
vt 0.046785 0.964454
vt 0.034493 0.970122
vt 0.046763 0.961609
vt 0.049025 0.959046
vt 0.034232 0.970174
vt 0.037814 0.970755
vt 0.046300 0.964482
vt 0.034493 0.969597
vt 0.050852 0.959101
vt 0.035016 0.970122
vt 0.050852 0.956261
vt 0.046238 0.961639
vt 0.034232 0.969545
vt 0.034755 0.970174
vt 0.037848 0.971336
vt 0.037814 0.969591
vt 0.050480 0.959062
vt 0.035016 0.969597
vt 0.035471 0.949287
vt 0.035539 0.969597
vt 0.050449 0.956218
vt 0.035409 0.952131
vt 0.045837 0.961695
vt 0.034755 0.969545
vt 0.035800 0.969545
vt 0.037368 0.969545
vt 0.031440 0.969545
vt 0.035539 0.970122
vt 0.035956 0.949315
vt 0.036061 0.969597
vt 0.035934 0.952161
vt 0.035800 0.970174
vt 0.036323 0.969545
vt 0.031391 0.970125
vt 0.036061 0.970122
vt 0.036481 0.949315
vt 0.036584 0.969597
vt 0.036503 0.952161
vt 0.036323 0.970174
vt 0.036845 0.969545
vt 0.031374 0.970753
vt 0.036584 0.970122
vt 0.036966 0.949287
vt 0.037106 0.970122
vt 0.037028 0.952131
vt 0.036845 0.970174
vt 0.031391 0.971335
vt 0.037337 0.949236
vt 0.037106 0.969597
vt 0.032399 0.969545
vt 0.037368 0.970122
vt 0.032492 0.966706
vt 0.037430 0.952075
vt 0.036845 0.969545
vt 0.037106 0.970174
vt 0.031440 0.971781
vt 0.049120 0.956218
vt 0.037368 0.969597
vt 0.032028 0.969494
vt 0.036323 0.969597
vt 0.032090 0.966650
vt 0.037106 0.969545
vt 0.036584 0.969545
vt 0.049059 0.956663
vt 0.036323 0.970122
vt 0.031543 0.969466
vt 0.035800 0.969597
vt 0.031565 0.966620
vt 0.036584 0.970174
vt 0.036061 0.969545
vt 0.049025 0.957244
vt 0.035800 0.970122
vt 0.031019 0.969466
vt 0.035277 0.969597
vt 0.030997 0.966620
vt 0.036061 0.970174
vt 0.035539 0.969545
vt 0.049025 0.957872
vt 0.035277 0.970122
vt 0.030534 0.969494
vt 0.035016 0.969597
vt 0.041920 0.966833
vt 0.030472 0.966650
vt 0.035539 0.970174
vt 0.035277 0.969545
vt 0.049059 0.958453
vt 0.041233 0.969574
vt 0.030163 0.969545
vt 0.035016 0.970122
vt 0.034493 0.969597
vt 0.035277 0.970174
vt 0.034755 0.969545
vt 0.049120 0.958898
vt 0.032803 0.969545
vt 0.050449 0.958852
vt 0.034133 0.969576
vt 0.028321 0.971375
vt 0.039178 0.970203
vt 0.034755 0.970174
vt 0.032769 0.970126
vt 0.034101 0.970137
vt 0.028554 0.971936
vt 0.028983 0.972365
vt 0.034101 0.970744
vt 0.029544 0.972597
vt 0.034133 0.971305
vt 0.039178 0.969576
vt 0.030151 0.972597
vt 0.039146 0.970137
vt 0.030712 0.972365
vt 0.039146 0.970744
vt 0.031141 0.971936
vt 0.039178 0.971305
vt 0.037814 0.970921
vt 0.031374 0.971375
vt 0.037383 0.970876
vt 0.032769 0.969613
vt 0.031374 0.970768
vt 0.032722 0.970172
vt 0.031141 0.970207
vt 0.032705 0.970779
vt 0.030712 0.969778
vt 0.032722 0.971341
vt 0.030151 0.969545
vt 0.032769 0.971772
vt 0.050449 0.956264
vt 0.029544 0.969545
vt 0.050389 0.956693
vt 0.028983 0.969778
vt 0.050357 0.957254
vt 0.028554 0.970207
vt 0.050357 0.957861
vt 0.028321 0.970768
vt 0.050389 0.958422
s 0
usemtl Wasser
f 1/2/1 4/8/1 7/15/1 2/4/1
f 1/1/2 2/3/2 10/22/2 13/30/2 16/37/2 19/41/2 22/45/2 25/50/2 28/56/2 31/60/2 34/64/2 37/68/2 40/74/2 43/81/2 46/87/2 3/5/2
f 3/6/3 6/12/3 4/8/3 1/2/3
f 6/14/3 48/91/3 5/10/3 4/9/3
f 4/9/1 5/10/1 8/17/1 7/16/1
f 2/4/4 7/15/4 9/19/4 10/23/4
f 7/16/4 8/17/4 11/25/4 9/20/4
f 10/24/5 9/21/5 12/28/5 13/31/5
f 9/21/5 11/26/5 14/33/5 12/28/5
f 13/32/6 12/29/6 15/36/6 16/38/6
f 12/29/6 14/35/6 17/39/6 15/36/6
f 16/38/7 15/36/7 18/40/7 19/42/7
f 15/36/7 17/39/7 20/43/7 18/40/7
f 19/42/8 18/40/8 21/44/8 22/46/8
f 18/40/8 20/43/8 23/47/8 21/44/8
f 22/46/9 21/44/9 24/48/9 25/51/9
f 21/44/9 23/47/9 26/53/9 24/48/9
f 25/52/10 24/49/10 27/55/10 28/57/10
f 24/49/10 26/54/10 29/58/10 27/55/10
f 28/57/11 27/55/11 30/59/11 31/61/11
f 27/55/11 29/58/11 32/62/11 30/59/11
f 31/61/12 30/59/12 33/63/12 34/65/12
f 30/59/12 32/62/12 35/66/12 33/63/12
f 34/65/13 33/63/13 36/67/13 37/69/13
f 33/63/13 35/66/13 38/70/13 36/67/13
f 37/69/14 36/67/14 39/72/14 40/75/14
f 36/67/14 38/70/14 41/77/14 39/72/14
f 40/76/15 39/73/15 42/79/15 43/82/15
f 39/73/15 41/78/15 44/84/15 42/79/15
f 43/82/16 42/79/16 45/85/16 46/88/16
f 42/80/16 44/83/16 47/89/16 45/86/16
f 46/88/17 45/85/17 6/13/17 3/7/17
f 45/86/17 47/89/17 48/91/17 6/14/17
f 47/90/18 44/84/18 51/96/18 49/94/18
f 48/92/19 47/90/19 49/94/19 52/97/19
f 49/94/20 51/96/20 81/135/20 50/95/20
f 52/97/21 49/94/21 50/95/21 53/99/21
f 5/11/22 48/93/22 52/98/22 54/101/22
f 54/101/23 52/98/23 53/100/23 55/102/23
f 56/103/24 54/101/24 55/102/24 57/104/24
f 8/18/25 5/11/25 54/101/25 56/103/25
f 11/27/26 8/18/26 56/103/26 58/105/26
f 58/105/27 56/103/27 57/104/27 59/106/27
f 60/107/28 58/105/28 59/106/28 61/110/28
f 14/34/29 11/27/29 58/105/29 60/107/29
f 17/39/30 14/35/30 60/108/30 62/111/30
f 62/111/31 60/108/31 61/109/31 63/112/31
f 20/43/32 17/39/32 62/111/32 64/113/32
f 64/113/33 62/111/33 63/112/33 65/114/33
f 66/115/34 64/113/34 65/114/34 67/116/34
f 23/47/35 20/43/35 64/113/35 66/115/35
f 26/53/36 23/47/36 66/115/36 68/117/36
f 68/117/37 66/115/37 67/116/37 69/120/37
f 70/121/38 68/118/38 69/119/38 71/122/38
f 29/58/39 26/54/39 68/118/39 70/121/39
f 32/62/40 29/58/40 70/121/40 72/123/40
f 72/123/41 70/121/41 71/122/41 73/124/41
f 35/66/42 32/62/42 72/123/42 74/125/42
f 74/125/43 72/123/43 73/124/43 75/126/43
f 76/127/44 74/125/44 75/126/44 77/130/44
f 38/70/45 35/66/45 74/125/45 76/127/45
f 41/78/46 38/71/46 76/128/46 78/131/46
f 78/131/47 76/128/47 77/129/47 79/132/47
f 51/96/48 78/131/48 79/132/48 81/135/48
f 44/84/49 41/78/49 78/131/49 51/96/49
f 81/135/50 79/132/50 80/133/50 82/136/50
f 79/132/51 77/129/51 124/246/51 80/133/51
f 50/95/52 81/135/52 82/136/52 84/140/52
f 82/136/53 80/133/53 126/251/53 83/137/53
f 84/140/54 82/136/54 83/137/54 86/143/54
f 53/99/55 50/95/55 84/140/55 85/141/55
f 85/141/56 84/140/56 86/143/56 88/149/56
f 88/150/57 86/144/57 87/146/57 89/153/57
f 86/145/58 83/138/58 129/262/58 87/147/58
f 91/160/59 85/142/59 88/151/59 90/158/59
f 90/157/60 88/152/60 89/154/60 92/161/60
f 94/167/61 91/160/61 90/158/61 93/165/61
f 93/164/62 90/159/62 92/162/62 95/168/62
f 97/176/63 94/167/63 93/165/63 96/171/63
f 96/172/64 93/166/64 95/169/64 98/177/64
f 100/185/65 97/175/65 96/173/65 99/181/65
f 99/182/66 96/174/66 98/178/66 101/188/66
f 103/195/67 100/186/67 99/183/67 102/193/67
f 102/192/68 99/184/68 101/189/68 104/196/68
f 106/202/69 103/195/69 102/193/69 105/200/69
f 105/199/70 102/194/70 104/197/70 107/203/70
f 109/209/71 106/202/71 105/200/71 108/207/71
f 108/206/72 105/201/72 107/204/72 110/210/72
f 112/217/73 109/209/73 108/207/73 111/212/73
f 111/213/74 108/208/74 110/210/74 113/218/74
f 115/225/75 112/216/75 111/214/75 114/223/75
f 114/222/76 111/215/76 113/219/76 116/226/76
f 118/232/77 115/225/77 114/223/77 117/230/77
f 117/229/78 114/224/78 116/227/78 119/233/78
f 121/239/79 118/232/79 117/230/79 120/237/79
f 120/236/80 117/231/80 119/234/80 122/240/80
f 124/247/81 121/239/81 120/237/81 123/244/81
f 123/243/82 120/238/82 122/241/82 125/248/82
f 80/134/83 124/247/83 123/244/83 126/252/83
f 126/253/84 123/245/84 125/249/84 127/255/84
f 83/139/85 126/254/85 127/256/85 129/263/85
f 127/257/86 125/250/86 144/298/86 128/259/86
f 129/264/87 127/258/87 128/260/87 130/265/87
f 87/148/88 129/264/88 130/265/88 131/268/88
f 134/274/89 133/272/89 132/269/89 131/267/89 130/266/89 128/261/89 144/297/89 143/295/89 142/293/89 141/291/89 140/288/89 139/286/89 138/284/89 137/282/89 136/279/89 135/276/89
f 89/155/90 87/148/90 131/268/90 132/270/90
f 92/163/91 89/156/91 132/271/91 133/273/91
f 95/170/92 92/163/92 133/273/92 134/275/92
f 98/179/93 95/170/93 134/275/93 135/277/93
f 101/190/94 98/180/94 135/278/94 136/280/94
f 104/198/95 101/191/95 136/281/95 137/283/95
f 107/205/96 104/198/96 137/283/96 138/285/96
f 110/211/97 107/205/97 138/285/97 139/287/97
f 113/220/98 110/211/98 139/287/98 140/289/98
f 116/228/99 113/221/99 140/290/99 141/292/99
f 119/235/100 116/228/100 141/292/100 142/294/100
f 122/242/101 119/235/101 142/294/101 143/296/101
f 125/250/102 122/242/102 143/296/102 144/298/102
f 77/130/103 75/126/103 121/239/103 124/247/103
f 75/126/104 73/124/104 118/232/104 121/239/104
f 73/124/105 71/122/105 115/225/105 118/232/105
f 71/122/106 69/119/106 112/216/106 115/225/106
f 69/120/107 67/116/107 109/209/107 112/217/107
f 67/116/108 65/114/108 106/202/108 109/209/108
f 65/114/109 63/112/109 103/195/109 106/202/109
f 63/112/110 61/109/110 100/186/110 103/195/110
f 61/110/111 59/106/111 97/176/111 100/187/111
f 59/106/112 57/104/112 94/167/112 97/176/112
f 57/104/113 55/102/113 91/160/113 94/167/113
f 55/102/114 53/100/114 85/142/114 91/160/114
